PathFileType	4	(X/Y/Z)	D:\telocate\uwb07-Unnamed.trc
DataRate	CameraRate	NumFrames	NumMarkers	Units	OrigDataRate	OrigDataStartFrame	OrigNumFrames
100.00	100.00	     88	0	mm	100.00	8681	     23149
Frame#	Time	
		

8681	86.800	1637.60901	153.94682	1400.54773	
8682	86.810	1632.66284	156.86400	1398.35803	
8683	86.820	1627.22412	159.04677	1396.47266	
8684	86.830	1620.17639	161.44951	1394.29651	
8685	86.840	1613.15491	163.69847	1391.89685	
8686	86.850	1608.13354	166.30943	1390.36206	
8687	86.860	1603.15735	168.31612	1388.50989	
8688	86.870	1597.92200	171.00490	1386.69263	
8689	86.880	1592.37476	172.98915	1384.54480	
8690	86.890	1585.26855	174.93207	1382.42139	
8691	86.900	1580.43738	177.50159	1380.96411	
8692	86.910	1574.42334	179.21942	1379.14502	
8693	86.920	1567.10901	181.03445	1377.32800	
8694	86.930	1561.31213	182.62164	1375.40308	
8695	86.940	1553.03906	184.75938	1373.61743	
8696	86.950	1547.17078	186.04015	1372.29871	
8697	86.960	1539.25903	187.33934	1370.57556	
8698	86.970	1533.51001	188.09628	1369.14148	
8699	86.980	1529.78088	189.16080	1368.61646	
8700	86.990	1524.44763	189.97267	1367.30920	
8701	87.000	1518.58020	190.52425	1365.75427	
8702	87.010	1512.42908	190.72552	1364.09509	
8703	87.020	1506.78113	190.91335	1363.07214	
8704	87.030	1500.53381	190.97972	1361.92493	
8705	87.040	1494.43420	191.32372	1360.58606	
8706	87.050	1488.43799	191.66570	1359.65845	
8707	87.060	1482.02478	192.06294	1358.72839	
8708	87.070	1476.00769	192.52600	1357.78296	
8709	87.080	1469.74512	193.62413	1356.73572	
8710	87.090	1463.83972	194.08745	1355.51990	
8711	87.100	1456.22803	194.58824	1354.19958	
8712	87.110	1448.48999	195.06129	1352.44507	
8713	87.120	1443.91260	196.17236	1351.87488	
8714	87.130	1435.36560	196.65598	1350.22949	
8715	87.140	1429.44128	196.96623	1348.98657	
8716	87.150	1424.69824	198.35971	1347.92029	
8717	87.160	1417.78149	198.97252	1346.99780	
8718	87.170	1416.33240	200.19366	1346.59277	
8719	87.180	1410.56921	200.64462	1345.26685	
8720	87.190	1403.80945	201.84969	1344.09412	
8721	87.200	1396.82202	202.33075	1342.53101	
8722	87.210	1391.55054	203.33853	1341.92432	
8723	87.220	1385.23340	204.51515	1340.29456	
8724	87.230	1384.18542	205.56523	1340.17932	
8725	87.240	1378.97009	206.11633	1339.81689	
8726	87.250	1373.36279	206.69748	1338.21973	
8727	87.260	1368.53296	207.90118	1337.81970	
8728	87.270	1363.05042	208.65309	1336.99609	
8729	87.280	1354.75415	208.93443	1335.24854	
8730	87.290	1351.67578	209.79204	1335.19763	
8731	87.300	1344.71362	210.37361	1333.79614	
8732	87.310	1339.74780	210.88303	1332.66064	
8733	87.320	1335.32166	211.36331	1332.27844	
8734	87.330	1329.13989	212.12621	1331.16003	
8735	87.340	1328.02637	213.04834	1330.96228	
8736	87.350	1323.75781	213.17049	1330.48755	
8737	87.360	1316.33496	213.57866	1328.75378	
8738	87.370	1311.32202	213.57674	1328.04968	
8739	87.380	1310.11450	214.65581	1328.12134	
8740	87.390	1302.98535	214.99155	1326.70337	
8741	87.400	1299.06152	215.62280	1326.27234	
8742	87.410	1294.48523	215.70583	1325.17273	
8743	87.420	1289.95435	216.44699	1324.89966	
8744	87.430	1285.66187	217.02902	1323.77002	
8745	87.440	1283.89417	217.69661	1323.87537	
8746	87.450	1279.53674	218.09476	1323.56531	
8747	87.460	1275.40247	218.32635	1322.85876	
8748	87.470	1271.23755	218.43553	1322.66052	
8749	87.480	1264.51514	218.89813	1321.64465	
8750	87.490	1259.32788	218.74272	1321.15881	
8751	87.500	1254.88916	218.98715	1320.32776	
8752	87.510	1251.75000	219.35680	1319.81189	
8753	87.520	1248.78357	219.56116	1319.49890	
8754	87.530	1245.34619	219.40392	1318.93762	
8755	87.540	1241.89978	219.62509	1318.30054	
8756	87.550	1237.47925	219.71376	1317.62244	
8757	87.560	1234.31274	219.66307	1317.20117	
8758	87.570	1231.24915	219.89220	1316.48364	
8759	87.580	1226.78442	220.05537	1316.21228	
8760	87.590	1225.22021	220.43698	1315.38538	
8761	87.600	1223.64075	220.66554	1315.97534	
8762	87.610	1220.00964	220.91315	1314.85254	
8763	87.620	1216.14819	221.17963	1314.76160	
8764	87.630	1209.49243	220.45442	1313.48755	
8765	87.640	1205.65161	220.30370	1312.85168	
8766	87.650	1206.16968	220.96088	1313.27734	
8767	87.660	1199.36523	220.59853	1311.58472	
8768	87.670	1196.83069	220.64140	1311.21423	
